# xmcd
#
# Track frame offsets:
#	300
#	16772
#	32165
#	52284
#	69393
#	86548
#	100683
#	118911
#	134170
#	152538
#	168518
#
# Disc length: 2382 seconds
#
# Revision: 0
# Processed by: cddbd v1.5.1PL0 Copyright (c) Steve Scherf et al.
# Submitted via: EasyCDDAExtractor 7.5.2.1
#
DISCID=94094a0b
DTITLE=Randy Moore and The Fabulous Deltones - Southern Thing
DYEAR=2002
DGENRE=Rockabilly
TTITLE0=I Saw The Stars
TTITLE1=Southern Thing
TTITLE2=Mosey Off
TTITLE3=Old Grey Dog
TTITLE4=Elvis and Jesus
TTITLE5=Faithfully
TTITLE6=I Have A Dream
TTITLE7=America
TTITLE8=Devil's Limousine
TTITLE9=His Name Is Jesus
TTITLE10=Red Rockabilly Guitar
EXTD=
EXTT0=
EXTT1=
EXTT2=
EXTT3=
EXTT4=
EXTT5=
EXTT6=
EXTT7=
EXTT8=
EXTT9=
EXTT10=
PLAYORDER=
